<svg width="49" height="49" viewBox="0 0 49 49" fill="none" xmlns="http://www.w3.org/2000/svg">
<g clip-path="url(#clip0_1_667)">
<path d="M35.5046 10.2083V6.125H8.96289V38.7917H13.0462V42.875H39.5879V10.2083H35.5046ZM9.98372 37.7708V7.14583H34.4837V37.7708H9.98372ZM38.5671 41.8542H14.0671V38.7917H35.5046V11.2292H38.5671V41.8542ZM19.845 22.979C19.9335 22.9772 20.0205 22.9563 20.1002 22.9177L27.4604 18.6608C27.5626 18.5865 27.6336 18.4769 27.6596 18.3533C27.6857 18.2296 27.665 18.1007 27.6014 17.9915C27.5379 17.8823 27.4362 17.8005 27.3158 17.7619C27.1955 17.7234 27.0651 17.7309 26.95 17.7829L19.5898 22.0296C19.4741 22.0979 19.3894 22.2083 19.3532 22.3377C19.3171 22.467 19.3323 22.6054 19.3958 22.7238C19.4412 22.8024 19.5068 22.8675 19.5857 22.9124C19.6647 22.9572 19.7542 22.9802 19.845 22.979ZM18.2729 27.1644C18.3631 27.1661 18.4519 27.1413 18.5281 27.0929L25.8985 22.8463C26.0144 22.7781 26.0987 22.6669 26.1331 22.5369C26.1675 22.407 26.1492 22.2687 26.0823 22.1521C26.0139 22.0365 25.9035 21.9517 25.7742 21.9156C25.6448 21.8794 25.5065 21.8947 25.3881 21.9581L18.0177 26.215C17.9219 26.2718 17.8473 26.3585 17.8053 26.4616C17.7633 26.5648 17.7563 26.6789 17.7852 26.7865C17.8141 26.8941 17.8774 26.9892 17.9655 27.0575C18.0535 27.1257 18.1615 27.1632 18.2729 27.1644Z" fill="#E31F26"/>
<path opacity="0.3" d="M13.0463 37.7504H14.0671V11.2087H34.4838V10.1879H13.0463V37.7504Z" fill="#E31F26"/>
</g>
<defs>
<clipPath id="clip0_1_667">
<rect width="49" height="49" fill="white"/>
</clipPath>
</defs>
</svg>
