<svg width="55" height="55" viewBox="0 0 55 55" fill="none" xmlns="http://www.w3.org/2000/svg">
<path d="M28.6917 27.9927C33.0708 27.9927 36.6208 24.4427 36.6208 20.0636C36.6208 15.6844 33.0708 12.1344 28.6917 12.1344C24.3125 12.1344 20.7625 15.6844 20.7625 20.0636C20.7625 24.4427 24.3125 27.9927 28.6917 27.9927Z" stroke="#E31F22" stroke-miterlimit="10"/>
<path d="M33.9625 34.8104C33.8656 34.8069 33.7711 34.7793 33.6875 34.7302L30.0896 32.6448L32.1635 29.0469C32.2158 28.9632 32.2883 28.894 32.3745 28.846C32.4606 28.7979 32.5576 28.7724 32.6562 28.7719C32.7559 28.7714 32.8541 28.795 32.9427 28.8406C33.0705 28.9192 33.1632 29.0439 33.2016 29.189C33.24 29.334 33.2212 29.4883 33.1489 29.6198L32.0031 31.5562L32.8739 31.2698C35.8475 30.1642 38.2615 27.9248 39.5868 25.0423C40.912 22.1599 41.0404 18.8696 39.9437 15.8927C39.9157 15.8255 39.9012 15.7535 39.9012 15.6807C39.9012 15.6079 39.9157 15.5359 39.9437 15.4687C39.9721 15.3986 40.0155 15.3355 40.071 15.284C40.1264 15.2326 40.1925 15.1939 40.2646 15.1708C40.329 15.159 40.395 15.159 40.4594 15.1708C40.5754 15.1716 40.6886 15.2068 40.7845 15.2721C40.8804 15.3374 40.9547 15.4298 40.9979 15.5375C41.5249 16.9888 41.8 18.5195 41.8114 20.0635C41.8181 22.9159 40.891 25.6921 39.1716 27.968C37.4523 30.244 35.0352 31.8946 32.2896 32.6677L34.2031 33.8135C34.2914 33.8645 34.3645 33.9381 34.4148 34.0267C34.4652 34.1153 34.491 34.2158 34.4896 34.3177C34.4896 34.4666 34.4304 34.6094 34.3251 34.7147C34.2198 34.82 34.077 34.8792 33.9281 34.8792L33.9625 34.8104ZM26.4916 32.9656C25.9256 32.8749 25.3666 32.7447 24.8187 32.576C21.61 31.5793 18.9082 29.3855 17.2739 26.4497C15.6397 23.514 15.1984 20.0618 16.0416 16.8094L13.9906 17.9552C13.9185 17.9662 13.845 17.9662 13.7729 17.9552C13.6209 17.9841 13.4638 17.9514 13.3359 17.8644C13.208 17.7773 13.12 17.6431 13.0911 17.4911C13.0623 17.3392 13.0949 17.182 13.182 17.0541C13.269 16.9263 13.4032 16.8382 13.5552 16.8094L17.0729 14.8958L19.1469 18.4937C19.1871 18.5579 19.2131 18.6301 19.223 18.7052C19.2329 18.7803 19.2265 18.8567 19.2041 18.9292C19.187 19.0004 19.1545 19.067 19.109 19.1244C19.0635 19.1818 19.006 19.2285 18.9406 19.2615C18.8592 19.3155 18.7633 19.3435 18.6656 19.3417C18.5651 19.3435 18.4661 19.3177 18.3793 19.2672C18.2924 19.2167 18.221 19.1434 18.1729 19.0552L17.0271 17.1417C16.943 17.4778 16.8743 17.8101 16.8208 18.1385C16.5582 19.6841 16.6032 21.2664 16.9531 22.7946C17.303 24.3228 17.9511 25.7669 18.8601 27.0442C19.7691 28.3215 20.9213 29.4069 22.2505 30.2382C23.5797 31.0695 25.0599 31.6303 26.6062 31.8885C26.7582 31.8992 26.8997 31.9697 26.9996 32.0847C27.0995 32.1997 27.1497 32.3496 27.139 32.5016C27.1284 32.6535 27.0578 32.795 26.9429 32.8949C26.8279 32.9948 26.678 33.045 26.526 33.0344H26.4573L26.4916 32.9656ZM34.8219 12.524C34.6853 12.5164 34.556 12.4603 34.4572 12.3657C34.3585 12.2712 34.2968 12.1444 34.2833 12.0083C34.2737 11.857 34.3233 11.7078 34.4217 11.5923C34.52 11.4768 34.6594 11.4041 34.8104 11.3896H37.0333L36.3573 10.7823C33.9153 8.7481 30.7654 7.7671 27.6003 8.05504C24.4351 8.34297 21.5139 9.87626 19.4791 12.3177C19.427 12.3829 19.3607 12.4353 19.2852 12.471C19.2098 12.5068 19.1272 12.5249 19.0437 12.524C18.9109 12.524 18.7818 12.4796 18.6771 12.3979C18.5652 12.2959 18.4923 12.1582 18.4708 12.0083C18.4645 11.9338 18.4734 11.8588 18.4971 11.7879C18.5207 11.717 18.5586 11.6516 18.6083 11.5958C18.9406 11.2062 19.2958 10.8167 19.6625 10.45C22.1263 8.13715 25.3858 6.86125 28.765 6.88685C32.1442 6.91245 35.384 8.23759 37.8125 10.5875V8.36458C37.8125 8.21567 37.8716 8.07286 37.9769 7.96757C38.0822 7.86227 38.225 7.80312 38.3739 7.80312C38.5239 7.80309 38.6679 7.86187 38.7751 7.96685C38.8822 8.07183 38.9439 8.21462 38.9469 8.36458V12.524H34.8219Z" fill="#E31F22"/>
<path d="M13.75 39.474H41.2615" stroke="#E31F22" stroke-miterlimit="10" stroke-linecap="round"/>
<path d="M13.75 44.6188H40.5281" stroke="#E31F22" stroke-miterlimit="10" stroke-linecap="round"/>
<path d="M38.0989 41.674L41.0437 44.6187L38.0989 47.5521" stroke="#E31F22" stroke-miterlimit="10" stroke-linecap="round"/>
</svg>
