<svg width="48" height="48" viewBox="0 0 48 48" fill="none" xmlns="http://www.w3.org/2000/svg">
<g clip-path="url(#clip0_1_672)">
<path d="M38.5 16.5C38.3 21.4 37.5 28.2 34.6 32.5C29.7 39.7 23.6 42.2 23.6 42.2C23.6 42.2 17.5 39.7 12.6 32.5C7.69998 25.3 8.69998 10.7 8.69998 10.7C8.69998 10.7 11.3 11.1 16.7 10C22.1 8.9 23.6 6.5 23.6 6.5C23.6 6.5 25.1 8.8 30.5 10C35.9 11.2 38.5 10.7 38.5 10.7L33.9 17.1L23.6 31.2L17 21.6" stroke="#E31F26" stroke-width="1.1" stroke-miterlimit="10" stroke-linecap="round" stroke-linejoin="round"/>
</g>
<defs>
<clipPath id="clip0_1_672">
<rect width="48" height="48" fill="white"/>
</clipPath>
</defs>
</svg>
