<svg width="34" height="37" viewBox="0 0 34 37" fill="none" xmlns="http://www.w3.org/2000/svg">
<path d="M31.0533 6.8255L17.9067 0.100375C17.68 -9.72207e-08 17.5667 0 17.5667 0H9.63333C8.04667 0 6.8 1.10412 6.8 2.50937V9.03375H3.4C1.47333 9.03375 0 10.3386 0 12.045V24.09C0 25.7964 1.47333 27.1012 3.4 27.1012H6.8V33.6256C6.8 35.0309 8.04667 36.135 9.63333 36.135H31.1667C32.7533 36.135 34 35.0309 34 33.6256V11.0412C34 9.13412 32.7533 7.6285 31.0533 6.8255ZM27.88 6.424C26.0667 6.62475 24.48 7.72887 23.8 9.2345L19.04 1.90712L27.88 6.424ZM1.13333 24.09V12.045C1.13333 10.9409 2.15333 10.0375 3.4 10.0375H9.06667V26.0975H3.4C2.15333 26.0975 1.13333 25.1941 1.13333 24.09ZM18.1333 10.0375V26.0975H13.6V10.0375H18.1333ZM12.4667 26.0975H10.2V10.0375H12.4667V26.0975ZM32.8667 33.6256C32.8667 34.4286 32.0733 35.1312 31.1667 35.1312H9.63333C8.72667 35.1312 7.93333 34.4286 7.93333 33.6256V27.1012H18.1333C18.8133 27.1012 19.2667 26.6997 19.2667 26.0975V22.5844C20.4 21.9821 24.3667 19.9746 24.3667 19.9746C25.0467 19.6735 24.48 18.7701 23.8 19.0712L19.2667 21.3799V19.3724C20.2867 18.8705 25.84 16.06 25.84 16.06C26.52 15.7589 25.9533 14.8555 25.2733 15.1566L19.2667 18.1679V10.0375C19.2667 9.43525 18.8133 9.03375 18.1333 9.03375H7.93333V2.50937C7.93333 1.70637 8.72667 1.00375 9.63333 1.00375H17.2267L23.5733 10.7401C23.6867 10.9409 23.9133 11.0412 24.14 10.9409C24.3667 10.9409 24.5933 10.7401 24.5933 10.5394C24.82 8.13037 27.88 6.62475 30.3733 7.6285C31.8467 8.23075 32.8667 9.43525 32.8667 10.9409V33.6256Z" fill="#E31F26"/>
</svg>
